<?xml version="1.0" encoding="utf-8"?>
<!-- Generator: Adobe Illustrator 16.0.0, SVG Export Plug-In . SVG Version: 6.00 Build 0)  -->
<!DOCTYPE svg PUBLIC "-//W3C//DTD SVG 1.1//EN" "http://www.w3.org/Graphics/SVG/1.1/DTD/svg11.dtd">
<svg version="1.1" id="Layer_1" xmlns="http://www.w3.org/2000/svg" xmlns:xlink="http://www.w3.org/1999/xlink" x="0px" y="0px"
	 width="595.28px" height="841.89px" viewBox="0 0 595.28 841.89" enable-background="new 0 0 595.28 841.89" xml:space="preserve">
<path fill-rule="evenodd" clip-rule="evenodd" fill="#FFFFFF" d="M303.741,411.416h9.194v2.349h-9.194V411.416z M316.423,425.325
	h-11.971c0.128,2.904,1.539,3.974,4.074,3.974c1.831,0,3.309-0.584,3.598-1.617h3.649c-1.282,3.936-3.649,5.068-7.406,5.068
	c-5.231,0-8.474-3.612-8.474-8.772c0-5.001,3.436-8.809,8.474-8.809C314.015,415.169,316.743,420.197,316.423,425.325z
	 M304.452,421.915h7.414c-0.418-2.321-1.415-3.292-3.629-3.292C305.35,418.623,304.516,420.626,304.452,421.915z M298.697,425.619
	c0,4.679-3.949,6.681-8.089,6.681h-11.104v-23.179h10.786c4.363,0,7.316,1.563,7.316,5.854c0,2.261-1.123,3.84-3.115,4.809
	C297.286,420.591,298.697,422.75,298.697,425.619z M288.829,413.02h-4.718v5.387h5.103c1.764,0,3.081-0.806,3.081-2.739
	C292.295,413.474,290.625,413.02,288.829,413.02z M289.598,421.857h-5.486v6.323h5.391c1.99,0,3.722-0.644,3.722-3.032
	C293.224,422.795,291.749,421.857,289.598,421.857z"/>
</svg>
