<?xml version="1.0" encoding="utf-8"?>
<!-- Generator: Adobe Illustrator 16.0.0, SVG Export Plug-In . SVG Version: 6.00 Build 0)  -->
<!DOCTYPE svg PUBLIC "-//W3C//DTD SVG 1.1//EN" "http://www.w3.org/Graphics/SVG/1.1/DTD/svg11.dtd">
<svg version="1.1" xmlns="http://www.w3.org/2000/svg" xmlns:xlink="http://www.w3.org/1999/xlink" x="0px" y="0px" width="1280px"
	 height="360px" viewBox="0 0 1280 360" enable-background="new 0 0 1280 360" xml:space="preserve">
<g id="Layer_1" display="none">
	<g display="inline">
		<path fill="#FCF0E9" stroke="#FCF0E9" d="M-146.528-20.137L-17.724,95.598L58.81-14.54L-146.528-20.137z"/>
		<path fill="#F8DFD2" stroke="#F8DFD2" d="M58.81-14.54L-17.724,95.598l191.337,52.267L58.81-14.54z"/>
		<path fill="#F8E0D6" stroke="#F8E0D6" d="M58.81-14.54l114.804,162.404L189.48-44.404L58.81-14.54z"/>
		<path fill="#F6D8CA" stroke="#F6D8CA" d="M189.48-44.404l-15.867,192.269L296.816,12.529L189.48-44.404z"/>
		<path fill="#F5CEC1" stroke="#F5CEC1" d="M189.48-44.404l107.335,56.933l157.735-83.068L189.48-44.404z"/>
		<path fill="#F3CBBB" stroke="#F3CBBB" d="M296.816,12.529L173.614,147.865l185.735-84.002L296.816,12.529z"/>
		<path fill="#F1C8BA" stroke="#F1C8BA" d="M296.816,12.529l62.533,51.333l95.202-134.402L296.816,12.529z"/>
		<path fill="#EFC1B5" stroke="#EFC1B5" d="M454.551-70.539L359.349,63.863L484.42,89.065L454.551-70.539z"/>
		<path fill="#EAB5AB" stroke="#EAB5AB" d="M454.551-70.539L484.42,89.065l159.597-78.402L454.551-70.539z"/>
		<path fill="#E6ADA4" stroke="#E6ADA4" d="M454.551-70.539l189.466,81.202l52.271-40.135L454.551-70.539z"/>
		<path fill="#E8AA9C" stroke="#E8AA9C" d="M644.017,10.663L484.42,89.065l117.604,36.4L644.017,10.663z"/>
		<path fill="#E39F92" stroke="#E39F92" d="M644.017,10.663l-41.993,114.802l160.533-23.333L644.017,10.663z"/>
		<path fill="#E2A29A" stroke="#E2A29A" d="M644.017,10.663l118.54,91.469L696.288-29.473L644.017,10.663z"/>
		<path fill="#DF9A94" stroke="#DF9A94" d="M696.288-29.473l66.269,131.604l98.002-89.602L696.288-29.473z"/>
		<path fill="#DB908D" stroke="#DB908D" d="M696.288-29.473l164.271,42.002l105.469-65.335L696.288-29.473z"/>
		<path fill="#DC8D84" stroke="#DC8D84" d="M860.559,12.529l-98.002,89.602l68.136,22.4L860.559,12.529z"/>
		<path fill="#D6807B" stroke="#D6807B" d="M860.559,12.529l-29.866,112.002l234.269-18.667L860.559,12.529z"/>
		<path fill="#D58683" stroke="#D58683" d="M860.559,12.529l204.402,93.335L966.027-52.806L860.559,12.529z"/>
		<path fill="#D28583" stroke="#D28583" d="M966.027-52.806l98.934,158.671l35.471-110.135L966.027-52.806z"/>
		<path fill="#CF827D" stroke="#CF827D" d="M1100.432-4.271l-35.471,110.135l123.204-42.936L1100.432-4.271z"/>
		<path fill="#CE8483" stroke="#CE8483" d="M1100.432-4.271l87.733,67.2l74.671-131.602L1100.432-4.271z"/>
		<path fill="#CC8380" stroke="#CC8380" d="M1262.836-68.673l-74.671,131.602l52.271,75.602L1262.836-68.673z"/>
		<path fill="#C97B73" stroke="#C97B73" d="M1262.836-68.673l-22.4,207.204L1336.571,230L1262.836-68.673z"/>
		<path fill="#F6D5C3" stroke="#F6D5C3" d="M-17.724,95.598l-129.737,170.804L14.943,216L-17.724,95.598z"/>
		<path fill="#F5D2C0" stroke="#F5D2C0" d="M-17.724,95.598L14.943,216l158.671-68.135L-17.724,95.598z"/>
		<path fill="#F2C0A9" stroke="#F2C0A9" d="M173.614,147.865L14.943,216l155.871,84.936L173.614,147.865z"/>
		<path fill="#F1B69D" stroke="#F1B69D" d="M173.614,147.865l-2.8,153.071L322.016,216L173.614,147.865z"/>
		<path fill="#F2C0A9" stroke="#F2C0A9" d="M173.614,147.865L322.016,216l37.333-152.137L173.614,147.865z"/>
		<path fill="#EFB7A2" stroke="#EFB7A2" d="M359.349,63.863L322.016,216L484.42,89.065L359.349,63.863z"/>
		<path fill="#ECA890" stroke="#ECA890" d="M484.42,89.065L322.016,216l119.469,57.869L484.42,89.065z"/>
		<path fill="#E8A28E" stroke="#E8A28E" d="M484.42,89.065l-42.936,184.804l160.54-148.404L484.42,89.065z"/>
		<path fill="#E4917A" stroke="#E4917A" d="M602.024,125.465l-160.54,148.404l178.271,26.133L602.024,125.465z"/>
		<path fill="#E18975" stroke="#E18975" d="M602.024,125.465l17.731,174.537l97.998-66.269L602.024,125.465z"/>
		<path fill="#E08F80" stroke="#E08F80" d="M602.024,125.465l115.729,108.269l44.804-131.602L602.024,125.465z"/>
		<path fill="#DB8477" stroke="#DB8477" d="M762.557,102.131l-44.804,131.602l112.939-109.202L762.557,102.131z"/>
		<path fill="#DA7A69" stroke="#DA7A69" d="M830.692,124.531L717.753,233.733L879.226,244L830.692,124.531z"/>
		<path fill="#D47468" stroke="#D47468" d="M830.692,124.531L879.226,244l185.735-138.135L830.692,124.531z"/>
		<path fill="#D26959" stroke="#D26959" d="M1064.961,105.865L879.226,244l154.938,30.8L1064.961,105.865z"/>
		<path fill="#CE6A5B" stroke="#CE6A5B" d="M1064.961,105.865L1034.163,274.8l146.54-57.866L1064.961,105.865z"/>
		<path fill="#CD776C" stroke="#CD776C" d="M1064.961,105.865l115.742,111.069l7.462-154.004L1064.961,105.865z"/>
		<path fill="#CC7569" stroke="#CC7569" d="M1188.165,62.929l-7.462,154.004l59.732-78.402L1188.165,62.929z"/>
		<path fill="#C96B5C" stroke="#C96B5C" d="M1240.436,138.531l-59.732,78.402L1336.571,230L1240.436,138.531z"/>
		<path fill="#F3C5B1" stroke="#F3C5B1" d="M-147.461,266.402l40.136,103.603L14.943,216L-147.461,266.402z"/>
		<path fill="#F1B6A2" stroke="#F1B6A2" d="M14.943,216l-122.268,154.004L7.477,408.271L14.943,216z"/>
		<path fill="#F1B39C" stroke="#F1B39C" d="M14.943,216L7.477,408.271l163.337-107.335L14.943,216z"/>
		<path fill="#EC9A87" stroke="#EC9A87" d="M170.813,300.936L7.477,408.271l166.137,29.862L170.813,300.936z"/>
		<path fill="#EC9580" stroke="#EC9580" d="M170.813,300.936l2.8,137.197l132.533-81.197L170.813,300.936z"/>
		<path fill="#EDA388" stroke="#EDA388" d="M170.813,300.936l135.333,56L322.016,216L170.813,300.936z"/>
		<path fill="#ED9E80" stroke="#ED9E80" d="M322.016,216l-15.869,140.936l135.337-83.067L322.016,216z"/>
		<path fill="#E98E74" stroke="#E98E74" d="M441.484,273.869l-135.337,83.067l165.207-17.734L441.484,273.869z"/>
		<path fill="#E5866F" stroke="#E5866F" d="M441.484,273.869l29.869,65.333l148.401-39.2L441.484,273.869z"/>
		<path fill="#E17962" stroke="#E17962" d="M619.755,300.002l-148.401,39.2l136.269,35.469L619.755,300.002z"/>
		<path fill="#DC6B59" stroke="#DC6B59" d="M619.755,300.002l-12.133,74.669l167.07-20.533L619.755,300.002z"/>
		<path fill="#DB735D" stroke="#DB735D" d="M619.755,300.002l154.938,54.136l-56.939-120.404L619.755,300.002z"/>
		<path fill="#D96D5A" stroke="#D96D5A" d="M717.753,233.733l56.939,120.404L879.226,244L717.753,233.733z"/>
		<path fill="#D65F4E" stroke="#D65F4E" d="M879.226,244L774.692,354.138l72.8,19.6L879.226,244z"/>
		<path fill="#D35747" stroke="#D35747" d="M879.226,244l-31.733,129.737l170.807-37.335L879.226,244z"/>
		<path fill="#D15C49" stroke="#D15C49" d="M879.226,244l139.073,92.402l15.864-61.603L879.226,244z"/>
		<path fill="#CE5241" stroke="#CE5241" d="M1034.163,274.8l-15.864,61.603l170.802,42.001L1034.163,274.8z"/>
		<path fill="#CB5A48" stroke="#CB5A48" d="M1034.163,274.8l154.938,103.604l-8.397-161.47L1034.163,274.8z"/>
		<path fill="#C85543" stroke="#C85543" d="M1180.703,216.934l8.397,161.47l130.666-28.933L1180.703,216.934z"/>
		<path fill="#C75F4C" stroke="#C75F4C" d="M1180.703,216.934l139.063,132.538L1336.571,230L1180.703,216.934z"/>
		<path fill="#E98270" stroke="#E98270" d="M173.614,438.133l17.733,92.402l114.8-173.6L173.614,438.133z"/>
		<path fill="#E7715E" stroke="#E7715E" d="M306.147,356.936l-114.8,173.6l179.202,52.266L306.147,356.936z"/>
		<path fill="#E76C58" stroke="#E76C58" d="M306.147,356.936l64.402,225.865l122.271-85.866L306.147,356.936z"/>
		<path fill="#E67A62" stroke="#E67A62" d="M306.147,356.936L492.82,496.935l-21.466-157.733L306.147,356.936z"/>
		<path fill="#E16E59" stroke="#E16E59" d="M471.354,339.202l21.466,157.733l114.802-122.264L471.354,339.202z"/>
		<path fill="#DA5A4A" stroke="#DA5A4A" d="M607.622,374.671l94.266,114.797l72.805-135.33L607.622,374.671z"/>
		<path fill="#D65344" stroke="#D65344" d="M774.692,354.138l-72.805,135.33l145.604-115.73L774.692,354.138z"/>
		<path fill="#D14839" stroke="#D14839" d="M847.492,373.737l25.197,121.331l145.609-158.666L847.492,373.737z"/>
		<path fill="#D03E2F" stroke="#D03E2F" d="M1018.299,336.402L872.689,495.068l159.607,40.131L1018.299,336.402z"/>
		<path fill="#CC4233" stroke="#CC4233" d="M1018.299,336.402l13.998,198.797l156.804-156.795L1018.299,336.402z"/>
		<path fill="#C54436" stroke="#C54436" d="M1189.101,378.404l78.399,97.998l52.267-126.93L1189.101,378.404z"/>
		<path fill="#C22F22" stroke="#C22F22" d="M1319.767,349.471l-52.267,126.93l44.8,378.006L1319.767,349.471z"/>
	</g>
</g>
<g id="Layer_2" display="none">
	<g display="inline">
		<path fill="#5B78AD" stroke="#5B78AD" d="M-63.84,751.787L3.837,608.693L-14.53,293.506L-63.84,751.787z"/>
		<path fill="#3F68A9" stroke="#3F68A9" d="M3.837,608.693l30.938-202.067l-49.305-113.12L3.837,608.693z"/>
		<path fill="#A3CAEB" stroke="#A3CAEB" d="M1333.233,402.76l-52.208-44.479l-180.797,104.42L1333.233,402.76z"/>
		<path fill="#8FBBE3" stroke="#8FBBE3" d="M1100.229,462.701l180.797-104.42l-188.533-101.519L1100.229,462.701z"/>
		<path fill="#85B2DB" stroke="#85B2DB" d="M1100.229,462.701l-7.736-205.938l-52.211,16.438L1100.229,462.701z"/>
		<path fill="#8EBEE2" stroke="#8EBEE2" d="M1100.229,462.701l-59.947-189.5l-93.778,168.23L1100.229,462.701z"/>
		<path fill="#80B2DC" stroke="#80B2DC" d="M946.503,441.432l93.778-168.23l-173.062,67.682L946.503,441.432z"/>
		<path fill="#85BAE1" stroke="#85BAE1" d="M946.503,441.432l-79.284-100.549l7.737,88.947L946.503,441.432z"/>
		<path fill="#82B9E1" stroke="#82B9E1" d="M874.956,429.83l-7.737-88.947L698.024,491.706L874.956,429.83z"/>
		<path fill="#6EA8D6" stroke="#6EA8D6" d="M698.024,491.706l169.194-150.823l-182.729-77.345L698.024,491.706z"/>
		<path fill="#68A4D5" stroke="#68A4D5" d="M698.024,491.706l-13.535-228.168l-148.89,192.394L698.024,491.706z"/>
		<path fill="#548FC6" stroke="#548FC6" d="M535.599,455.932l148.89-192.394l-126.656-12.571L535.599,455.932z"/>
		<path fill="#4F8CC5" stroke="#4F8CC5" d="M535.599,455.932l22.234-204.965l-95.717,78.314L535.599,455.932z"/>
		<path fill="#5C98CD" stroke="#5C98CD" d="M535.599,455.932l-73.482-126.651l-5.801,143.089L535.599,455.932z"/>
		<path fill="#4985BE" stroke="#4985BE" d="M456.316,472.37l5.801-143.089L218.475,345.72L456.316,472.37z"/>
		<path fill="#5088C0" stroke="#5088C0" d="M456.316,472.37L218.475,345.72l-8.704,161.455L456.316,472.37z"/>
		<path fill="#4A7BB6" stroke="#4A7BB6" d="M209.771,507.175l8.704-161.455L69.58,488.809L209.771,507.175z"/>
		<path fill="#3D6FAE" stroke="#3D6FAE" d="M69.58,488.809L218.475,345.72l-183.7,60.906L69.58,488.809z"/>
		<path fill="#2D61A4" stroke="#2D61A4" d="M34.775,406.626l183.7-60.906l-82.182-84.12L34.775,406.626z"/>
		<path fill="#28539A" stroke="#28539A" d="M34.775,406.626L136.293,261.6L-14.53,293.506L34.775,406.626z"/>
		<path fill="#89A8D4" stroke="#89A8D4" d="M1281.025,358.281l50.274-155.66l-217.536,6.775L1281.025,358.281z"/>
		<path fill="#84A8D4" stroke="#84A8D4" d="M1281.025,358.281l-167.262-148.885l-21.271,47.367L1281.025,358.281z"/>
		<path fill="#789BCB" stroke="#789BCB" d="M1092.492,256.763l21.271-47.367l-73.482,63.805L1092.492,256.763z"/>
		<path fill="#6F8FC3" stroke="#6F8FC3" d="M1040.281,273.201l73.482-63.805l-150.827-87.987L1040.281,273.201z"/>
		<path fill="#6E96C6" stroke="#6E96C6" d="M1040.281,273.201l-77.345-151.792l-95.718,219.474L1040.281,273.201z"/>
		<path fill="#6087BD" stroke="#6087BD" d="M867.219,340.883l95.718-219.474l-174.029,20.305L867.219,340.883z"/>
		<path fill="#5D8DC2" stroke="#5D8DC2" d="M867.219,340.883l-78.312-199.169L684.489,263.538L867.219,340.883z"/>
		<path fill="#4B76B2" stroke="#4B76B2" d="M684.489,263.538l104.418-121.824l-121.823-24.172L684.489,263.538z"/>
		<path fill="#4372B1" stroke="#4372B1" d="M684.489,263.538l-17.405-145.996l-101.516,68.651L684.489,263.538z"/>
		<path fill="#487BB7" stroke="#487BB7" d="M684.489,263.538l-118.921-77.345l-7.735,64.774L684.489,263.538z"/>
		<path fill="#376AAB" stroke="#376AAB" d="M557.833,250.967l7.735-64.774l-180.797,9.664L557.833,250.967z"/>
		<path fill="#3C72B2" stroke="#3C72B2" d="M557.833,250.967l-173.062-55.111l77.346,133.425L557.833,250.967z"/>
		<path fill="#376DAE" stroke="#376DAE" d="M462.117,329.281l-77.346-133.425L218.475,345.72L462.117,329.281z"/>
		<path fill="#24539A" stroke="#24539A" d="M218.475,345.72l166.296-149.864l-154.695-88.947L218.475,345.72z"/>
		<path fill="#235097" stroke="#235097" d="M218.475,345.72l11.602-238.811L136.293,261.6L218.475,345.72z"/>
		<path fill="#153E86" stroke="#153E86" d="M136.293,261.6l93.783-154.691l-113.12,20.306L136.293,261.6z"/>
		<path fill="#16428B" stroke="#16428B" d="M136.293,261.6l-19.336-134.385L-14.53,293.506L136.293,261.6z"/>
		<path fill="#1D387D" stroke="#1D387D" d="M-14.53,293.506l131.487-166.292l-183.7,42.54L-14.53,293.506z"/>
		<path fill="#758ABE" stroke="#758ABE" d="M1331.3,202.621L1281.99-5.251l-168.227,214.647L1331.3,202.621z"/>
		<path fill="#6778B1" stroke="#6778B1" d="M1113.764,209.396L1281.99-5.251l-185.631,36.744L1113.764,209.396z"/>
		<path fill="#6279B2" stroke="#6279B2" d="M1113.764,209.396l-17.404-177.903l-95.715,24.173L1113.764,209.396z"/>
		<path fill="#637FB6" stroke="#637FB6" d="M1113.764,209.396l-113.119-153.73l-37.708,65.744L1113.764,209.396z"/>
		<path fill="#546DA8" stroke="#546DA8" d="M962.937,121.409l37.708-65.744l-142.124-13.54L962.937,121.409z"/>
		<path fill="#5070AC" stroke="#5070AC" d="M962.937,121.409L858.521,42.125l-69.613,99.588L962.937,121.409z"/>
		<path fill="#4162A5" stroke="#4162A5" d="M788.907,141.714l69.613-99.588l-182.732-14.5L788.907,141.714z"/>
		<path fill="#3F63A6" stroke="#3F63A6" d="M788.907,141.714L675.788,27.625l-8.704,89.916L788.907,141.714z"/>
		<path fill="#305497" stroke="#305497" d="M667.084,117.542l8.704-89.916l-146.959-29L667.084,117.542z"/>
		<path fill="#2E5A9F" stroke="#2E5A9F" d="M667.084,117.542L528.829-1.375l36.739,187.567L667.084,117.542z"/>
		<path fill="#224892" stroke="#224892" d="M565.568,186.192L528.829-1.375L382.838,26.656L565.568,186.192z"/>
		<path fill="#28539B" stroke="#28539B" d="M565.568,186.192L382.838,26.656l1.933,169.2L565.568,186.192z"/>
		<path fill="#18418B" stroke="#18418B" d="M384.771,195.856l-1.933-169.2l-152.762,80.252L384.771,195.856z"/>
		<path fill="#1B397A" stroke="#1B397A" d="M230.076,106.909l152.762-80.252l-69.616-29L230.076,106.909z"/>
		<path fill="#1F3268" stroke="#1F3268" d="M230.076,106.909L313.222-2.343L70.549-31.353L230.076,106.909z"/>
		<path fill="#203167" stroke="#203167" d="M230.076,106.909L70.549-31.353l46.407,158.567L230.076,106.909z"/>
		<path fill="#1F2B59" stroke="#1F2B59" d="M116.957,127.214L70.549-31.353L2.868-26.517L116.957,127.214z"/>
		<path fill="#202E61" stroke="#202E61" d="M116.957,127.214L2.868-26.517l-69.611,196.271L116.957,127.214z"/>
		<path fill="#4E689E" stroke="#4E689E" d="M1281.99-5.251L528.829-1.375l329.691,43.5L1281.99-5.251z"/>
		<path fill="#6071A5" stroke="#6071A5" d="M1281.99-5.251l-423.47,47.376l237.839-10.633L1281.99-5.251z"/>
		<path fill="#576DA5" stroke="#576DA5" d="M1096.359,31.493L858.521,42.125l142.124,13.54L1096.359,31.493z"/>
		<path fill="#395A98" stroke="#395A98" d="M858.521,42.125l-329.691-43.5l146.959,29L858.521,42.125z"/>
		<path fill="#143F81" stroke="#143F81" d="M528.829-1.375L313.222-2.343l69.616,29L528.829-1.375z"/>
	</g>
</g>
<g id="Layer_3">
	<g>
		<path fill="#659173" stroke="#659173" d="M14.503,742.475v-209.46L-46.201,55.113L14.503,742.475z"/>
		<path fill="#CAE6DF" stroke="#CAE6DF" d="M1310.576,449.232l-23.939-94.905l-110.287,11.118L1310.576,449.232z"/>
		<path fill="#B5DDD6" stroke="#B5DDD6" d="M1001.085,494.539l75.235-126.529l-159.019-42.746L1001.085,494.539z"/>
		<path fill="#BDE1DD" stroke="#BDE1DD" d="M1001.085,494.539l-83.783-169.275l2.565,194.922L1001.085,494.539z"/>
		<path fill="#B1DBD3" stroke="#B1DBD3" d="M919.867,520.187l-2.565-194.922L752.299,485.989L919.867,520.187z"/>
		<path fill="#9FD2C3" stroke="#9FD2C3" d="M752.299,485.989l165.003-160.725L721.52,360.312L752.299,485.989z"/>
		<path fill="#9CD1BF" stroke="#9CD1BF" d="M752.299,485.989L721.52,360.312l-93.189,71.818L752.299,485.989z"/>
		<path fill="#92CCB5" stroke="#92CCB5" d="M628.331,432.13l93.189-71.818l-88.915,29.926L628.331,432.13z"/>
		<path fill="#8AC8AB" stroke="#8AC8AB" d="M628.331,432.13l4.274-41.892l-116.254-35.052L628.331,432.13z"/>
		<path fill="#86C5A7" stroke="#86C5A7" d="M628.331,432.13l-111.98-76.943l-14.534,85.492L628.331,432.13z"/>
		<path fill="#81BF9D" stroke="#81BF9D" d="M501.816,440.679l14.534-85.492l-90.622,102.591L501.816,440.679z"/>
		<path fill="#75B68E" stroke="#75B68E" d="M425.729,457.777l90.622-102.591l-149.611-38.463L425.729,457.777z"/>
		<path fill="#6CAC7F" stroke="#6CAC7F" d="M425.729,457.777l-58.989-141.054l-148.761,55.562L425.729,457.777z"/>
		<path fill="#619B6B" stroke="#619B6B" d="M117.948,460.342l100.03-88.057l-82.077-30.782L117.948,460.342z"/>
		<path fill="#61956C" stroke="#61956C" d="M117.948,460.342l17.953-118.838L7.663,400.498L117.948,460.342z"/>
		<path fill="#4E8056" stroke="#4E8056" d="M14.503,533.015l-6.84-132.517L-46.201,55.113L14.503,533.015z"/>
		<path fill="#A8D1B5" stroke="#A8D1B5" d="M1286.637,354.328l47.023-169.267l-176.974,32.483L1286.637,354.328z"/>
		<path fill="#B2DAC6" stroke="#B2DAC6" d="M1286.637,354.328l-129.95-136.783l19.663,147.901L1286.637,354.328z"/>
		<path fill="#ACD8C4" stroke="#ACD8C4" d="M1176.35,365.446l-19.663-147.901L1076.32,368.01L1176.35,365.446z"/>
		<path fill="#9FD1B8" stroke="#9FD1B8" d="M1076.32,368.01l80.366-150.466l-130.808,41.895L1076.32,368.01z"/>
		<path fill="#A2D3BF" stroke="#A2D3BF" d="M1076.32,368.01l-50.441-108.571l-108.577,65.825L1076.32,368.01z"/>
		<path fill="#94CBB1" stroke="#94CBB1" d="M917.302,325.264l108.577-65.825l-148.758,2.565L917.302,325.264z"/>
		<path fill="#93CCB1" stroke="#93CCB1" d="M917.302,325.264l-40.181-63.26L721.52,360.312L917.302,325.264z"/>
		<path fill="#83C09F" stroke="#83C09F" d="M721.52,360.312l155.602-98.308l-82.075-49.586L721.52,360.312z"/>
		<path fill="#79B990" stroke="#79B990" d="M721.52,360.312l73.526-147.894l-180.392-2.569L721.52,360.312z"/>
		<path fill="#80C19E" stroke="#80C19E" d="M721.52,360.312L614.654,209.85l17.951,180.389L721.52,360.312z"/>
		<path fill="#79B992" stroke="#79B992" d="M632.605,390.238L614.654,209.85l-98.303,145.337L632.605,390.238z"/>
		<path fill="#64A574" stroke="#64A574" d="M516.351,355.187l98.303-145.337l-89.754-30.773L516.351,355.187z"/>
		<path fill="#60A16E" stroke="#60A16E" d="M516.351,355.187l8.549-176.11L412.905,254.31L516.351,355.187z"/>
		<path fill="#66A675" stroke="#66A675" d="M516.351,355.187L412.905,254.31l-46.166,62.414L516.351,355.187z"/>
		<path fill="#55945A" stroke="#55945A" d="M366.739,316.724l46.166-62.414l-187.232-0.854L366.739,316.724z"/>
		<path fill="#59965D" stroke="#59965D" d="M366.739,316.724l-141.066-63.269l-7.694,118.83L366.739,316.724z"/>
		<path fill="#569157" stroke="#569157" d="M217.979,372.285l7.694-118.83l-89.771,88.048L217.979,372.285z"/>
		<path fill="#4C8446" stroke="#4C8446" d="M135.901,341.503l89.771-88.048l-70.108-21.373L135.901,341.503z"/>
		<path fill="#43793D" stroke="#43793D" d="M135.901,341.503l19.664-109.421l-165-48.735L135.901,341.503z"/>
		<path fill="#4D804F" stroke="#4D804F" d="M135.901,341.503L-9.435,183.347l17.098,217.15L135.901,341.503z"/>
		<path fill="#37672F" stroke="#37672F" d="M7.663,400.498l-17.098-217.15L-46.201,55.113L7.663,400.498z"/>
		<path fill="#8FB789" stroke="#8FB789" d="M1333.66,185.061l-3.422-75.237l-123.111-21.374L1333.66,185.061z"/>
		<path fill="#8EBC93" stroke="#8EBC93" d="M1333.66,185.061l-126.533-96.61l-50.44,129.094L1333.66,185.061z"/>
		<path fill="#83B284" stroke="#83B284" d="M1156.687,217.544l50.44-129.094l-144.486,0.855L1156.687,217.544z"/>
		<path fill="#8ABB96" stroke="#8ABB96" d="M1156.687,217.544l-94.046-128.238l-36.762,170.133L1156.687,217.544z"/>
		<path fill="#79AD80" stroke="#79AD80" d="M1025.879,259.439l36.762-170.133L890.798,63.658L1025.879,259.439z"/>
		<path fill="#7EB690" stroke="#7EB690" d="M1025.879,259.439L890.798,63.658l-13.677,198.346L1025.879,259.439z"/>
		<path fill="#74AE82" stroke="#74AE82" d="M877.121,262.004l13.677-198.346l-95.752,148.76L877.121,262.004z"/>
		<path fill="#639C69" stroke="#639C69" d="M795.046,212.418l95.752-148.76L742.895,52.544L795.046,212.418z"/>
		<path fill="#5F9961" stroke="#5F9961" d="M795.046,212.418L742.895,52.544l-48.733,40.181L795.046,212.418z"/>
		<path fill="#62A270" stroke="#62A270" d="M795.046,212.418L694.161,92.726L614.654,209.85L795.046,212.418z"/>
		<path fill="#559153" stroke="#559153" d="M614.654,209.85l79.507-117.124L524.044,77.333L614.654,209.85z"/>
		<path fill="#539154" stroke="#539154" d="M614.654,209.85L524.044,77.333l0.855,101.744L614.654,209.85z"/>
		<path fill="#477F3C" stroke="#477F3C" d="M524.899,179.077l-0.855-101.744L379.563,65.364L524.899,179.077z"/>
		<path fill="#4C8746" stroke="#4C8746" d="M524.899,179.077L379.563,65.364l33.342,188.946L524.899,179.077z"/>
		<path fill="#417E35" stroke="#417E35" d="M412.905,254.31L379.563,65.364l-89.767,60.704L412.905,254.31z"/>
		<path fill="#488441" stroke="#488441" d="M412.905,254.31L289.796,126.067l-64.123,127.388L412.905,254.31z"/>
		<path fill="#3B7328" stroke="#3B7328" d="M225.673,253.455l64.123-127.388l-137.65-13.679L225.673,253.455z"/>
		<path fill="#3D7530" stroke="#3D7530" d="M225.673,253.455l-73.527-141.066l3.419,119.693L225.673,253.455z"/>
		<path fill="#376A26" stroke="#376A26" d="M155.565,232.082l-3.419-119.693L-9.435,183.347L155.565,232.082z"/>
		<path fill="#2B571A" stroke="#2B571A" d="M-9.435,183.347l161.581-70.958L-46.201,55.113L-9.435,183.347z"/>
		<path fill="#88A783" stroke="#88A783" d="M1330.238,109.824l-58.135-129.098l-64.977,107.724L1330.238,109.824z"/>
		<path fill="#809E80" stroke="#809E80" d="M1207.127,88.451l64.977-107.724l-134.228,30.777L1207.127,88.451z"/>
		<path fill="#7EA27E" stroke="#7EA27E" d="M1207.127,88.451l-69.251-76.947l-75.235,77.802L1207.127,88.451z"/>
		<path fill="#749579" stroke="#749579" d="M1062.641,89.306l75.235-77.802L994.247-68.004L1062.641,89.306z"/>
		<path fill="#6C9075" stroke="#6C9075" d="M1062.641,89.306l-68.394-157.31l-98.32,75.237L1062.641,89.306z"/>
		<path fill="#6D9875" stroke="#6D9875" d="M1062.641,89.306L895.927,7.233l-5.129,56.425L1062.641,89.306z"/>
		<path fill="#61906A" stroke="#61906A" d="M890.798,63.658l5.129-56.425L742.895,52.544L890.798,63.658z"/>
		<path fill="#5B8466" stroke="#5B8466" d="M742.895,52.544L895.927,7.233l-96.605-77.802L742.895,52.544z"/>
		<path fill="#53805C" stroke="#53805C" d="M742.895,52.544l56.427-123.113L647.993,19.198L742.895,52.544z"/>
		<path fill="#55895A" stroke="#55895A" d="M742.895,52.544l-94.901-33.346l46.168,73.527L742.895,52.544z"/>
		<path fill="#4F8451" stroke="#4F8451" d="M694.161,92.726l-46.168-73.527L524.044,77.333L694.161,92.726z"/>
		<path fill="#457845" stroke="#457845" d="M524.044,77.333l123.949-58.135l-159-11.965L524.044,77.333z"/>
		<path fill="#3F7238" stroke="#3F7238" d="M524.044,77.333l-35.052-70.1l-109.43,58.13L524.044,77.333z"/>
		<path fill="#36622D" stroke="#36622D" d="M379.563,65.364l109.43-58.13L359.044-79.968L379.563,65.364z"/>
		<path fill="#2F5C25" stroke="#2F5C25" d="M379.563,65.364L359.044-79.968L288.937,6.378L379.563,65.364z"/>
		<path fill="#366825" stroke="#366825" d="M379.563,65.364L288.937,6.378l0.859,119.689L379.563,65.364z"/>
		<path fill="#32641E" stroke="#32641E" d="M289.796,126.067L288.937,6.378l-136.792,106.01L289.796,126.067z"/>
		<path fill="#2A5519" stroke="#2A5519" d="M152.146,112.389L288.937,6.378l-110.29-30.781L152.146,112.389z"/>
		<path fill="#244A15" stroke="#244A15" d="M152.146,112.389l26.502-136.792l-153.03-14.53L152.146,112.389z"/>
		<path fill="#234915" stroke="#234915" d="M152.146,112.389L25.617-38.933l-71.818,94.046L152.146,112.389z"/>
		<path fill="#77917C" stroke="#77917C" d="M1272.104-19.273l-277.856-48.73l143.629,79.508L1272.104-19.273z"/>
		<path fill="#61826D" stroke="#61826D" d="M994.247-68.004l-194.926-2.564l96.605,77.802L994.247-68.004z"/>
		<path fill="#3D6741" stroke="#3D6741" d="M799.321-70.568l-440.277-9.4L488.993,7.233L799.321-70.568z"/>
		<path fill="#4A7852" stroke="#4A7852" d="M799.321-70.568L488.993,7.233l159,11.965L799.321-70.568z"/>
		<path fill="#274E1A" stroke="#274E1A" d="M359.044-79.968L178.647-24.403l110.29,30.781L359.044-79.968z"/>
	</g>
</g>
</svg>
