<?xml version="1.0" encoding="utf-8"?>
<!-- Generator: Adobe Illustrator 16.0.0, SVG Export Plug-In . SVG Version: 6.00 Build 0)  -->
<!DOCTYPE svg PUBLIC "-//W3C//DTD SVG 1.1//EN" "http://www.w3.org/Graphics/SVG/1.1/DTD/svg11.dtd">
<svg version="1.1" id="All_glyphs" xmlns="http://www.w3.org/2000/svg" xmlns:xlink="http://www.w3.org/1999/xlink" x="0px" y="0px"
	 width="6000px" height="4000px" viewBox="0 0 6000 4000" enable-background="new 0 0 6000 4000" xml:space="preserve">
<path fill="#FFFFFF" d="M-2521.489,3950.828c-6.793-12.073-14.054-21.914-14.587-22.636c-10.956,5.177-19.132,15.269-21.683,27.432
	C-2556.727,3955.643-2540.354,3955.84-2521.489,3950.828z M-2516.596,3964.024c0.514-0.163,1.029-0.318,1.549-0.467
	c-0.986-2.234-2.062-4.47-3.188-6.676c-20.229,6.054-39.643,5.615-40.332,5.598c-0.012,0.413-0.031,0.825-0.031,1.244
	c0,10.102,3.816,19.308,10.078,26.267c-0.012-0.013-0.027-0.034-0.027-0.034S-2537.793,3970.881-2516.596,3964.024z
	 M-2543.459,3994.692l0.006-0.016c-0.291-0.229-0.604-0.438-0.889-0.676C-2543.821,3994.419-2543.459,3994.692-2543.459,3994.692z
	 M-2528.725,3925.583c-0.035,0.008-0.07,0.017-0.104,0.024c0.061-0.015,0.097-0.021,0.097-0.021L-2528.725,3925.583z
	 M-2493.37,3934.241c-6.918-6.096-15.998-9.802-25.945-9.802c-3.191,0-6.287,0.391-9.256,1.107
	c0.598,0.792,7.971,10.589,14.686,22.918C-2499.073,3942.912-2493.473,3934.402-2493.37,3934.241z M-2519.315,4009.724
	c-25.404,0-46-20.597-46-46c0-25.404,20.596-46,46-46c25.406,0,46,20.596,46,46
	C-2473.315,3989.127-2493.909,4009.724-2519.315,4009.724z M-2512.631,3970.152c-23.057,8.033-30.668,24.193-30.822,24.524
	c6.664,5.204,15.029,8.331,24.139,8.331c5.441,0,10.623-1.107,15.335-3.108c-0.582-3.444-2.867-15.476-8.392-29.835
	C-2512.458,3970.095-2512.543,3970.12-2512.631,3970.152z M-2510.864,3954.317c0.918,1.874,1.795,3.777,2.611,5.698
	c0.291,0.678,0.572,1.355,0.848,2.029c13.568-1.706,26.925,1.189,27.362,1.284c-0.093-9.323-3.423-17.869-8.935-24.56
	C-2489.057,3938.887-2495.359,3947.986-2510.864,3954.317z M-2505.01,3968.247c5.16,14.177,7.25,25.709,7.646,28.059
	c8.82-5.956,15.088-15.397,16.834-26.351C-2481.311,3969.703-2492.309,3966.214-2505.01,3968.247z"/>
</svg>
